<svg viewBox="0 0 860 364" width="860" xmlns="http://www.w3.org/2000/svg" font-family="-apple-system, 'Segoe UI', Helvetica, Arial, sans-serif">
<title>Per-axis means for council, structured prompt, and direct answer</title>
<text x="40" y="30" font-size="16" font-weight="600" fill="#8b949e" text-anchor="start" >Where the gap comes from — per rubric axis</text>
<text x="40" y="50" font-size="12" font-weight="400" fill="#6e7681" text-anchor="start" >Mean score 1–5 · council vs structured prompt, two-sided Wilcoxon, Bonferroni α = 0.01</text>
<rect x="40" y="62" width="12" height="12" rx="2" fill="#1a9e8a"/><text x="57" y="72" font-size="12" font-weight="400" fill="#8b949e" text-anchor="start" >wise-men council</text>
<rect x="184.6" y="62" width="12" height="12" rx="2" fill="#7d8ea5"/><text x="201.6" y="72" font-size="12" font-weight="400" fill="#8b949e" text-anchor="start" >structured single prompt</text>
<rect x="382.0" y="62" width="12" height="12" rx="2" fill="#b9c2ce"/><text x="399.0" y="72" font-size="12" font-weight="400" fill="#8b949e" text-anchor="start" >direct answer</text>
<line x1="40" y1="304.0" x2="820" y2="304.0" stroke="rgba(139,148,158,0.22)"/><text x="32" y="308.0" font-size="11" font-weight="400" fill="#6e7681" text-anchor="end" >0</text>
<line x1="40" y1="262.4" x2="820" y2="262.4" stroke="rgba(139,148,158,0.22)"/><text x="32" y="266.4" font-size="11" font-weight="400" fill="#6e7681" text-anchor="end" >1</text>
<line x1="40" y1="220.8" x2="820" y2="220.8" stroke="rgba(139,148,158,0.22)"/><text x="32" y="224.8" font-size="11" font-weight="400" fill="#6e7681" text-anchor="end" >2</text>
<line x1="40" y1="179.2" x2="820" y2="179.2" stroke="rgba(139,148,158,0.22)"/><text x="32" y="183.2" font-size="11" font-weight="400" fill="#6e7681" text-anchor="end" >3</text>
<line x1="40" y1="137.6" x2="820" y2="137.6" stroke="rgba(139,148,158,0.22)"/><text x="32" y="141.6" font-size="11" font-weight="400" fill="#6e7681" text-anchor="end" >4</text>
<line x1="40" y1="96.0" x2="820" y2="96.0" stroke="rgba(139,148,158,0.22)"/><text x="32" y="100.0" font-size="11" font-weight="400" fill="#6e7681" text-anchor="end" >5</text>
<rect x="60" y="100.3" width="34" height="203.7" rx="3" fill="#1a9e8a"/><text x="77.0" y="94.30344827586208" font-size="12" font-weight="600" fill="#1a9e8a" text-anchor="middle" >4.9</text>
<rect x="100" y="103.2" width="34" height="200.8" rx="3" fill="#7d8ea5"/><text x="117.0" y="97.17241379310346" font-size="12" font-weight="600" fill="#7d8ea5" text-anchor="middle" >4.8</text>
<rect x="140" y="123.3" width="34" height="180.7" rx="3" fill="#b9c2ce"/><text x="157.0" y="117.25517241379308" font-size="12" font-weight="600" fill="#6e7681" text-anchor="middle" >4.3</text>
<text x="117.0" y="324" font-size="13" font-weight="500" fill="#8b949e" text-anchor="middle" >correctness</text>
<text x="117.0" y="342" font-size="11" font-weight="400" fill="#6e7681" text-anchor="middle" >no difference</text>
<rect x="216" y="96.0" width="34" height="208.0" rx="3" fill="#1a9e8a"/><text x="233.0" y="90.0" font-size="12" font-weight="600" fill="#1a9e8a" text-anchor="middle" >5.0</text>
<rect x="256" y="140.5" width="34" height="163.5" rx="3" fill="#7d8ea5"/><text x="273.0" y="134.46896551724137" font-size="12" font-weight="600" fill="#7d8ea5" text-anchor="middle" >3.9</text>
<rect x="296" y="160.6" width="34" height="143.4" rx="3" fill="#b9c2ce"/><text x="313.0" y="154.55172413793105" font-size="12" font-weight="600" fill="#6e7681" text-anchor="middle" >3.4</text>
<text x="273.0" y="324" font-size="13" font-weight="500" fill="#8b949e" text-anchor="middle" >insight</text>
<text x="273.0" y="342" font-size="11" font-weight="400" fill="#1a9e8a" text-anchor="middle" >p &lt; 0.001</text>
<rect x="372" y="101.7" width="34" height="202.3" rx="3" fill="#1a9e8a"/><text x="389.0" y="95.73793103448276" font-size="12" font-weight="600" fill="#1a9e8a" text-anchor="middle" >4.9</text>
<rect x="412" y="133.3" width="34" height="170.7" rx="3" fill="#7d8ea5"/><text x="429.0" y="127.29655172413791" font-size="12" font-weight="600" fill="#7d8ea5" text-anchor="middle" >4.1</text>
<rect x="452" y="150.5" width="34" height="153.5" rx="3" fill="#b9c2ce"/><text x="469.0" y="144.5103448275862" font-size="12" font-weight="600" fill="#6e7681" text-anchor="middle" >3.7</text>
<text x="429.0" y="324" font-size="13" font-weight="500" fill="#8b949e" text-anchor="middle" >practical</text>
<text x="429.0" y="342" font-size="11" font-weight="400" fill="#1a9e8a" text-anchor="middle" >p &lt; 0.001</text>
<rect x="528" y="100.3" width="34" height="203.7" rx="3" fill="#1a9e8a"/><text x="545.0" y="94.30344827586208" font-size="12" font-weight="600" fill="#1a9e8a" text-anchor="middle" >4.9</text>
<rect x="568" y="141.9" width="34" height="162.1" rx="3" fill="#7d8ea5"/><text x="585.0" y="135.90344827586208" font-size="12" font-weight="600" fill="#7d8ea5" text-anchor="middle" >3.9</text>
<rect x="608" y="170.6" width="34" height="133.4" rx="3" fill="#b9c2ce"/><text x="625.0" y="164.59310344827585" font-size="12" font-weight="600" fill="#6e7681" text-anchor="middle" >3.2</text>
<text x="585.0" y="324" font-size="13" font-weight="500" fill="#8b949e" text-anchor="middle" >risk</text>
<text x="585.0" y="342" font-size="11" font-weight="400" fill="#1a9e8a" text-anchor="middle" >p &lt; 0.001</text>
<rect x="684" y="103.2" width="34" height="200.8" rx="3" fill="#1a9e8a"/><text x="701.0" y="97.17241379310346" font-size="12" font-weight="600" fill="#1a9e8a" text-anchor="middle" >4.8</text>
<rect x="724" y="137.6" width="34" height="166.4" rx="3" fill="#7d8ea5"/><text x="741.0" y="131.6" font-size="12" font-weight="600" fill="#7d8ea5" text-anchor="middle" >4.0</text>
<rect x="764" y="238.0" width="34" height="66.0" rx="3" fill="#b9c2ce"/><text x="781.0" y="232.01379310344828" font-size="12" font-weight="600" fill="#6e7681" text-anchor="middle" >1.6</text>
<text x="741.0" y="324" font-size="13" font-weight="500" fill="#8b949e" text-anchor="middle" >dissent</text>
<text x="741.0" y="342" font-size="11" font-weight="400" fill="#1a9e8a" text-anchor="middle" >p &lt; 0.001</text>
<text x="40" y="354" font-size="11" font-weight="400" fill="#6e7681" text-anchor="start" >Correctness is a tie; the council's edge is insight, practical usefulness, risk awareness, and above all dissent.</text>
</svg>
