<svg viewBox="0 0 860 450" width="860" xmlns="http://www.w3.org/2000/svg" font-family="-apple-system, BlinkMacSystemFont, 'Segoe UI', Helvetica, Arial, sans-serif">
<title>Round 3 (in progress) per-question scores over 8 questions: wise-men 3.11.0 versus the best other arm ahead 7, tied 0, behind 1</title>
<text x="40" y="32" font-size="16" font-weight="600" fill="#1f2328" text-anchor="start" >Round 3, in progress, question by question</text>
<text x="40" y="52" font-size="12" font-weight="400" fill="#59636e" text-anchor="start" >Each row: the mean of three blind judges' totals (max 25) for wise-men 3.11.0, every other arm and the plain answer</text>
<text x="660" y="90" font-size="11" font-weight="400" fill="#818b98" text-anchor="start" >3.11.0 vs the best other arm</text>
<line x1="300" y1="96" x2="300" y2="352" stroke="#d8dee4" stroke-width="1" />
<text x="300" y="368" font-size="11" font-weight="400" fill="#818b98" text-anchor="middle" >10</text>
<line x1="413.3" y1="96" x2="413.3" y2="352" stroke="#d8dee4" stroke-width="1" />
<text x="413.3" y="368" font-size="11" font-weight="400" fill="#818b98" text-anchor="middle" >15</text>
<line x1="526.7" y1="96" x2="526.7" y2="352" stroke="#d8dee4" stroke-width="1" />
<text x="526.7" y="368" font-size="11" font-weight="400" fill="#818b98" text-anchor="middle" >20</text>
<line x1="640" y1="96" x2="640" y2="352" stroke="#d8dee4" stroke-width="1" />
<text x="640" y="368" font-size="11" font-weight="400" fill="#818b98" text-anchor="middle" >25</text>
<text x="40" y="116" font-size="11" font-weight="400" fill="#818b98" text-anchor="start" >Q05</text>
<text x="76" y="116" font-size="12" font-weight="400" fill="#1f2328" text-anchor="start" >Monolith or microservices?</text>
<line x1="345.3" y1="112" x2="640" y2="112" stroke="#d8dee4" stroke-width="2" />
<circle cx="345.3" cy="112" r="7" fill="none" stroke="#59636e" stroke-width="1.6"/>
<circle cx="398.2" cy="112" r="4.5" fill="#8c959f" stroke="#ffffff" stroke-width="2"/>
<circle cx="383.1" cy="112" r="4.5" fill="#8c959f" stroke="#ffffff" stroke-width="2"/>
<circle cx="458.7" cy="112" r="4.5" fill="#8c959f" stroke="#ffffff" stroke-width="2"/>
<circle cx="458.7" cy="112" r="4.5" fill="#8c959f" stroke="#ffffff" stroke-width="2"/>
<circle cx="496.4" cy="112" r="4.5" fill="#8c959f" stroke="#ffffff" stroke-width="2"/>
<circle cx="511.6" cy="112" r="4.5" fill="#8c959f" stroke="#ffffff" stroke-width="2"/>
<circle cx="541.8" cy="112" r="4.5" fill="#8c959f" stroke="#ffffff" stroke-width="2"/>
<circle cx="541.8" cy="112" r="6" fill="none" stroke="#9e1b24" stroke-width="1.6"/>
<circle cx="640" cy="112" r="6.5" fill="#9e1b24" stroke="#ffffff" stroke-width="2"/>
<text x="660" y="116" font-size="12" font-weight="400" fill="#1f2328" text-anchor="start" >ahead</text>
<text x="712" y="116" font-size="11" font-weight="400" fill="#818b98" text-anchor="start" >wise-men 3.9.2 20.7</text>
<text x="40" y="148" font-size="11" font-weight="400" fill="#818b98" text-anchor="start" >Q09</text>
<text x="76" y="148" font-size="12" font-weight="400" fill="#1f2328" text-anchor="start" >Why event sourcing gets messy</text>
<line x1="383.1" y1="144" x2="624.9" y2="144" stroke="#d8dee4" stroke-width="2" />
<circle cx="383.1" cy="144" r="7" fill="none" stroke="#59636e" stroke-width="1.6"/>
<circle cx="420.9" cy="144" r="4.5" fill="#8c959f" stroke="#ffffff" stroke-width="2"/>
<circle cx="398.2" cy="144" r="4.5" fill="#8c959f" stroke="#ffffff" stroke-width="2"/>
<circle cx="481.3" cy="144" r="4.5" fill="#8c959f" stroke="#ffffff" stroke-width="2"/>
<circle cx="443.6" cy="144" r="4.5" fill="#8c959f" stroke="#ffffff" stroke-width="2"/>
<circle cx="496.4" cy="144" r="4.5" fill="#8c959f" stroke="#ffffff" stroke-width="2"/>
<circle cx="624.9" cy="144" r="4.5" fill="#8c959f" stroke="#ffffff" stroke-width="2"/>
<circle cx="579.6" cy="144" r="4.5" fill="#8c959f" stroke="#ffffff" stroke-width="2"/>
<circle cx="579.6" cy="144" r="6" fill="none" stroke="#9e1b24" stroke-width="1.6"/>
<circle cx="609.8" cy="144" r="6.5" fill="#9e1b24" stroke="#ffffff" stroke-width="2"/>
<text x="660" y="148" font-size="12" font-weight="400" fill="#1f2328" text-anchor="start" >behind</text>
<text x="712" y="148" font-size="11" font-weight="400" fill="#818b98" text-anchor="start" >Warp 24.3</text>
<text x="40" y="180" font-size="11" font-weight="400" fill="#818b98" text-anchor="start" >Q13</text>
<text x="76" y="180" font-size="12" font-weight="400" fill="#1f2328" text-anchor="start" >Entering a market with one giant</text>
<line x1="360.4" y1="176" x2="640" y2="176" stroke="#d8dee4" stroke-width="2" />
<circle cx="420.9" cy="176" r="7" fill="none" stroke="#59636e" stroke-width="1.6"/>
<circle cx="443.6" cy="176" r="4.5" fill="#8c959f" stroke="#ffffff" stroke-width="2"/>
<circle cx="360.4" cy="176" r="4.5" fill="#8c959f" stroke="#ffffff" stroke-width="2"/>
<circle cx="526.7" cy="176" r="4.5" fill="#8c959f" stroke="#ffffff" stroke-width="2"/>
<circle cx="511.6" cy="176" r="4.5" fill="#8c959f" stroke="#ffffff" stroke-width="2"/>
<circle cx="390.7" cy="176" r="4.5" fill="#8c959f" stroke="#ffffff" stroke-width="2"/>
<circle cx="526.7" cy="176" r="4.5" fill="#8c959f" stroke="#ffffff" stroke-width="2"/>
<circle cx="572" cy="176" r="4.5" fill="#8c959f" stroke="#ffffff" stroke-width="2"/>
<circle cx="572" cy="176" r="6" fill="none" stroke="#9e1b24" stroke-width="1.6"/>
<circle cx="640" cy="176" r="6.5" fill="#9e1b24" stroke="#ffffff" stroke-width="2"/>
<text x="660" y="180" font-size="12" font-weight="400" fill="#1f2328" text-anchor="start" >ahead</text>
<text x="712" y="180" font-size="11" font-weight="400" fill="#818b98" text-anchor="start" >wise-men 3.9.2 22.0</text>
<text x="40" y="212" font-size="11" font-weight="400" fill="#818b98" text-anchor="start" >Q19</text>
<text x="76" y="212" font-size="12" font-weight="400" fill="#1f2328" text-anchor="start" >Per-seat or usage pricing?</text>
<line x1="405.8" y1="208" x2="640" y2="208" stroke="#d8dee4" stroke-width="2" />
<circle cx="413.3" cy="208" r="7" fill="none" stroke="#59636e" stroke-width="1.6"/>
<circle cx="436" cy="208" r="4.5" fill="#8c959f" stroke="#ffffff" stroke-width="2"/>
<circle cx="443.6" cy="208" r="4.5" fill="#8c959f" stroke="#ffffff" stroke-width="2"/>
<circle cx="405.8" cy="208" r="4.5" fill="#8c959f" stroke="#ffffff" stroke-width="2"/>
<circle cx="549.3" cy="208" r="4.5" fill="#8c959f" stroke="#ffffff" stroke-width="2"/>
<circle cx="504" cy="208" r="4.5" fill="#8c959f" stroke="#ffffff" stroke-width="2"/>
<circle cx="541.8" cy="208" r="4.5" fill="#8c959f" stroke="#ffffff" stroke-width="2"/>
<circle cx="526.7" cy="208" r="4.5" fill="#8c959f" stroke="#ffffff" stroke-width="2"/>
<circle cx="526.7" cy="208" r="6" fill="none" stroke="#9e1b24" stroke-width="1.6"/>
<circle cx="640" cy="208" r="6.5" fill="#9e1b24" stroke="#ffffff" stroke-width="2"/>
<text x="660" y="212" font-size="12" font-weight="400" fill="#1f2328" text-anchor="start" >ahead</text>
<text x="712" y="212" font-size="11" font-weight="400" fill="#818b98" text-anchor="start" >llm-council 21.0</text>
<text x="40" y="244" font-size="11" font-weight="400" fill="#818b98" text-anchor="start" >Q25</text>
<text x="76" y="244" font-size="12" font-weight="400" fill="#1f2328" text-anchor="start" >Why replications fail</text>
<line x1="315.1" y1="240" x2="617.3" y2="240" stroke="#d8dee4" stroke-width="2" />
<circle cx="405.8" cy="240" r="7" fill="none" stroke="#59636e" stroke-width="1.6"/>
<circle cx="330.2" cy="240" r="4.5" fill="#8c959f" stroke="#ffffff" stroke-width="2"/>
<circle cx="315.1" cy="240" r="4.5" fill="#8c959f" stroke="#ffffff" stroke-width="2"/>
<circle cx="519.1" cy="240" r="4.5" fill="#8c959f" stroke="#ffffff" stroke-width="2"/>
<circle cx="481.3" cy="240" r="4.5" fill="#8c959f" stroke="#ffffff" stroke-width="2"/>
<circle cx="458.7" cy="240" r="4.5" fill="#8c959f" stroke="#ffffff" stroke-width="2"/>
<circle cx="587.1" cy="240" r="4.5" fill="#8c959f" stroke="#ffffff" stroke-width="2"/>
<circle cx="504" cy="240" r="4.5" fill="#8c959f" stroke="#ffffff" stroke-width="2"/>
<circle cx="504" cy="240" r="6" fill="none" stroke="#9e1b24" stroke-width="1.6"/>
<circle cx="617.3" cy="240" r="6.5" fill="#9e1b24" stroke="#ffffff" stroke-width="2"/>
<text x="660" y="244" font-size="12" font-weight="400" fill="#1f2328" text-anchor="start" >ahead</text>
<text x="712" y="244" font-size="11" font-weight="400" fill="#818b98" text-anchor="start" >Warp 22.7</text>
<text x="40" y="276" font-size="11" font-weight="400" fill="#818b98" text-anchor="start" >Q36</text>
<text x="76" y="276" font-size="12" font-weight="400" fill="#1f2328" text-anchor="start" >Blameless yet accountable postmortem</text>
<line x1="390.7" y1="272" x2="609.8" y2="272" stroke="#d8dee4" stroke-width="2" />
<circle cx="390.7" cy="272" r="7" fill="none" stroke="#59636e" stroke-width="1.6"/>
<circle cx="405.8" cy="272" r="4.5" fill="#8c959f" stroke="#ffffff" stroke-width="2"/>
<circle cx="436" cy="272" r="4.5" fill="#8c959f" stroke="#ffffff" stroke-width="2"/>
<circle cx="488.9" cy="272" r="4.5" fill="#8c959f" stroke="#ffffff" stroke-width="2"/>
<circle cx="443.6" cy="272" r="4.5" fill="#8c959f" stroke="#ffffff" stroke-width="2"/>
<circle cx="541.8" cy="272" r="4.5" fill="#8c959f" stroke="#ffffff" stroke-width="2"/>
<circle cx="534.2" cy="272" r="4.5" fill="#8c959f" stroke="#ffffff" stroke-width="2"/>
<circle cx="473.8" cy="272" r="4.5" fill="#8c959f" stroke="#ffffff" stroke-width="2"/>
<circle cx="473.8" cy="272" r="6" fill="none" stroke="#9e1b24" stroke-width="1.6"/>
<circle cx="609.8" cy="272" r="6.5" fill="#9e1b24" stroke="#ffffff" stroke-width="2"/>
<text x="660" y="276" font-size="12" font-weight="400" fill="#1f2328" text-anchor="start" >ahead</text>
<text x="712" y="276" font-size="11" font-weight="400" fill="#818b98" text-anchor="start" >ECC 20.7</text>
<text x="40" y="308" font-size="11" font-weight="400" fill="#818b98" text-anchor="start" >Q48</text>
<text x="76" y="308" font-size="12" font-weight="400" fill="#1f2328" text-anchor="start" >Colleagues underpaid, HR did nothing</text>
<line x1="368" y1="304" x2="632.4" y2="304" stroke="#d8dee4" stroke-width="2" />
<circle cx="405.8" cy="304" r="7" fill="none" stroke="#59636e" stroke-width="1.6"/>
<circle cx="436" cy="304" r="4.5" fill="#8c959f" stroke="#ffffff" stroke-width="2"/>
<circle cx="368" cy="304" r="4.5" fill="#8c959f" stroke="#ffffff" stroke-width="2"/>
<circle cx="602.2" cy="304" r="4.5" fill="#8c959f" stroke="#ffffff" stroke-width="2"/>
<circle cx="526.7" cy="304" r="4.5" fill="#8c959f" stroke="#ffffff" stroke-width="2"/>
<circle cx="519.1" cy="304" r="4.5" fill="#8c959f" stroke="#ffffff" stroke-width="2"/>
<circle cx="587.1" cy="304" r="4.5" fill="#8c959f" stroke="#ffffff" stroke-width="2"/>
<circle cx="556.9" cy="304" r="4.5" fill="#8c959f" stroke="#ffffff" stroke-width="2"/>
<circle cx="556.9" cy="304" r="6" fill="none" stroke="#9e1b24" stroke-width="1.6"/>
<circle cx="632.4" cy="304" r="6.5" fill="#9e1b24" stroke="#ffffff" stroke-width="2"/>
<text x="660" y="308" font-size="12" font-weight="400" fill="#1f2328" text-anchor="start" >ahead</text>
<text x="712" y="308" font-size="11" font-weight="400" fill="#818b98" text-anchor="start" >LifeOS 23.3</text>
<text x="40" y="340" font-size="11" font-weight="400" fill="#818b98" text-anchor="start" >Q55</text>
<text x="76" y="340" font-size="12" font-weight="400" fill="#1f2328" text-anchor="start" >A PhD at 35?</text>
<line x1="390.7" y1="336" x2="624.9" y2="336" stroke="#d8dee4" stroke-width="2" />
<circle cx="398.2" cy="336" r="7" fill="none" stroke="#59636e" stroke-width="1.6"/>
<circle cx="398.2" cy="336" r="4.5" fill="#8c959f" stroke="#ffffff" stroke-width="2"/>
<circle cx="390.7" cy="336" r="4.5" fill="#8c959f" stroke="#ffffff" stroke-width="2"/>
<circle cx="572" cy="336" r="4.5" fill="#8c959f" stroke="#ffffff" stroke-width="2"/>
<circle cx="549.3" cy="336" r="4.5" fill="#8c959f" stroke="#ffffff" stroke-width="2"/>
<circle cx="496.4" cy="336" r="4.5" fill="#8c959f" stroke="#ffffff" stroke-width="2"/>
<circle cx="526.7" cy="336" r="4.5" fill="#8c959f" stroke="#ffffff" stroke-width="2"/>
<circle cx="587.1" cy="336" r="4.5" fill="#8c959f" stroke="#ffffff" stroke-width="2"/>
<circle cx="587.1" cy="336" r="6" fill="none" stroke="#9e1b24" stroke-width="1.6"/>
<circle cx="624.9" cy="336" r="6.5" fill="#9e1b24" stroke="#ffffff" stroke-width="2"/>
<text x="660" y="340" font-size="12" font-weight="400" fill="#1f2328" text-anchor="start" >ahead</text>
<text x="712" y="340" font-size="11" font-weight="400" fill="#818b98" text-anchor="start" >wise-men 3.9.2 22.7</text>
<circle cx="46" cy="392" r="6.5" fill="#9e1b24" stroke="#ffffff" stroke-width="2"/>
<text x="58" y="396" font-size="11" font-weight="400" fill="#59636e" text-anchor="start" >wise-men 3.11.0</text>
<circle cx="176" cy="392" r="6" fill="none" stroke="#9e1b24" stroke-width="1.6"/>
<text x="188" y="396" font-size="11" font-weight="400" fill="#59636e" text-anchor="start" >wise-men 3.9.2 (round-2 answer)</text>
<circle cx="376" cy="392" r="4.5" fill="#8c959f" stroke="#ffffff" stroke-width="2"/>
<text x="386" y="396" font-size="11" font-weight="400" fill="#59636e" text-anchor="start" >the other skills</text>
<circle cx="496" cy="392" r="7" fill="none" stroke="#59636e" stroke-width="1.6"/>
<text x="508" y="396" font-size="11" font-weight="400" fill="#59636e" text-anchor="start" >plain answer</text>
<text x="40" y="418" font-size="11" font-weight="400" fill="#818b98" text-anchor="start" >Against the best other arm on each question: ahead 7, tied 0, behind 1 (of the 8 questions judged so far).</text>
<text x="40" y="434" font-size="11" font-weight="400" fill="#818b98" text-anchor="start" >The first rows are the round-2 questions; the held-out rows were never used in an earlier round. Three fresh Opus judges per question.</text>
</svg>
