<svg viewBox="0 0 860 444" width="860" xmlns="http://www.w3.org/2000/svg" font-family="-apple-system, BlinkMacSystemFont, 'Segoe UI', Helvetica, Arial, sans-serif">
<title>Round 1 per-axis mean scores for six arms: Correctness: plain answer 4.6, brainstorming 4.6, grilling 3.9, LifeOS Council 4.4, llm-council 3.9, wise-men 4.6; Insight: plain answer 3.3, brainstorming 3.8, grilling 3.3, LifeOS Council 4.3, llm-council 4.5, wise-men 4.6; Practical use: plain answer 4.0, brainstorming 4.4, grilling 4.0, LifeOS Council 4.1, llm-council 4.0, wise-men 4.0; Risk awareness: plain answer 2.9, brainstorming 3.3, grilling 3.3, LifeOS Council 4.3, llm-council 4.4, wise-men 5.0; Dissent quality: plain answer 1.6, brainstorming 1.9, grilling 1.9, LifeOS Council 4.4, llm-council 4.0, wise-men 5.0</title>
<text x="40" y="32" font-size="16" font-weight="600" fill="#1f2328" text-anchor="start" >Round 1: where the gap comes from — each rubric axis</text>
<text x="40" y="52" font-size="12" font-weight="400" fill="#59636e" text-anchor="start" >Mean score per axis, 1–5, over the same 8 questions · dashed line = the plain answer on that axis</text>
<rect x="40" y="72" width="12" height="12" rx="3" fill="#8c959f"/>
<text x="57" y="82" font-size="12" font-weight="400" fill="#59636e" text-anchor="start" >plain answer</text>
<rect x="160.6" y="72" width="12" height="12" rx="3" fill="#2a78d6"/>
<text x="177.6" y="82" font-size="12" font-weight="400" fill="#59636e" text-anchor="start" >brainstorming</text>
<rect x="288" y="72" width="12" height="12" rx="3" fill="#eb6834"/>
<text x="305" y="82" font-size="12" font-weight="400" fill="#59636e" text-anchor="start" >grilling</text>
<rect x="381.4" y="72" width="12" height="12" rx="3" fill="#4a3aa7"/>
<text x="398.4" y="82" font-size="12" font-weight="400" fill="#59636e" text-anchor="start" >LifeOS Council</text>
<rect x="515.6" y="72" width="12" height="12" rx="3" fill="#eda100"/>
<text x="532.6" y="82" font-size="12" font-weight="400" fill="#59636e" text-anchor="start" >llm-council</text>
<rect x="629.4" y="72" width="12" height="12" rx="3" fill="#9e1b24"/>
<text x="646.4" y="82" font-size="12" font-weight="700" fill="#1f2328" text-anchor="start" >wise-men</text>
<line x1="56" y1="340" x2="840" y2="340" stroke="#d8dee4" stroke-width="1" />
<text x="46" y="344" font-size="11" font-weight="400" fill="#818b98" text-anchor="end" >0</text>
<line x1="56" y1="300" x2="840" y2="300" stroke="#d8dee4" stroke-width="1" />
<text x="46" y="304" font-size="11" font-weight="400" fill="#818b98" text-anchor="end" >1</text>
<line x1="56" y1="260" x2="840" y2="260" stroke="#d8dee4" stroke-width="1" />
<text x="46" y="264" font-size="11" font-weight="400" fill="#818b98" text-anchor="end" >2</text>
<line x1="56" y1="220" x2="840" y2="220" stroke="#d8dee4" stroke-width="1" />
<text x="46" y="224" font-size="11" font-weight="400" fill="#818b98" text-anchor="end" >3</text>
<line x1="56" y1="180" x2="840" y2="180" stroke="#d8dee4" stroke-width="1" />
<text x="46" y="184" font-size="11" font-weight="400" fill="#818b98" text-anchor="end" >4</text>
<line x1="56" y1="140" x2="840" y2="140" stroke="#d8dee4" stroke-width="1" />
<text x="46" y="144" font-size="11" font-weight="400" fill="#818b98" text-anchor="end" >5</text>
<path d="M86.1,340v-181a4,4 0 0 1 4,-4h8a4,4 0 0 1 4,4v181z" fill="#8c959f"/>
<path d="M105.1,340v-181a4,4 0 0 1 4,-4h8a4,4 0 0 1 4,4v181z" fill="#2a78d6"/>
<path d="M124.1,340v-151a4,4 0 0 1 4,-4h8a4,4 0 0 1 4,4v151z" fill="#eb6834"/>
<path d="M143.1,340v-171a4,4 0 0 1 4,-4h8a4,4 0 0 1 4,4v171z" fill="#4a3aa7"/>
<path d="M162.1,340v-151a4,4 0 0 1 4,-4h8a4,4 0 0 1 4,4v151z" fill="#eda100"/>
<path d="M181.1,340v-181a4,4 0 0 1 4,-4h8a4,4 0 0 1 4,4v181z" fill="#9e1b24"/>
<line x1="81.1" y1="155" x2="202.1" y2="155" stroke="#1f2328" stroke-width="1" stroke-opacity="0.55" stroke-dasharray="4 3"/>
<text x="94.1" y="149" font-size="10" font-weight="400" fill="#818b98" text-anchor="middle" >4.6</text>
<text x="189.1" y="149" font-size="11" font-weight="700" fill="#1f2328" text-anchor="middle" >4.6</text>
<text x="141.6" y="362" font-size="13" font-weight="600" fill="#1f2328" text-anchor="middle" >Correctness</text>
<text x="141.6" y="379" font-size="11" font-weight="400" fill="#59636e" text-anchor="middle" >wise-men level with plain</text>
<path d="M241.3,340v-126a4,4 0 0 1 4,-4h8a4,4 0 0 1 4,4v126z" fill="#8c959f"/>
<path d="M260.3,340v-146a4,4 0 0 1 4,-4h8a4,4 0 0 1 4,4v146z" fill="#2a78d6"/>
<path d="M279.3,340v-126a4,4 0 0 1 4,-4h8a4,4 0 0 1 4,4v126z" fill="#eb6834"/>
<path d="M298.3,340v-166a4,4 0 0 1 4,-4h8a4,4 0 0 1 4,4v166z" fill="#4a3aa7"/>
<path d="M317.3,340v-176a4,4 0 0 1 4,-4h8a4,4 0 0 1 4,4v176z" fill="#eda100"/>
<path d="M336.3,340v-181a4,4 0 0 1 4,-4h8a4,4 0 0 1 4,4v181z" fill="#9e1b24"/>
<line x1="236.3" y1="210" x2="357.3" y2="210" stroke="#1f2328" stroke-width="1" stroke-opacity="0.55" stroke-dasharray="4 3"/>
<text x="249.3" y="204" font-size="10" font-weight="400" fill="#818b98" text-anchor="middle" >3.3</text>
<text x="344.3" y="149" font-size="11" font-weight="700" fill="#1f2328" text-anchor="middle" >4.6</text>
<text x="296.8" y="362" font-size="13" font-weight="600" fill="#1f2328" text-anchor="middle" >Insight</text>
<text x="296.8" y="379" font-size="11" font-weight="400" fill="#59636e" text-anchor="middle" >wise-men +1.4 over plain</text>
<path d="M396.5,340v-156a4,4 0 0 1 4,-4h8a4,4 0 0 1 4,4v156z" fill="#8c959f"/>
<path d="M415.5,340v-171a4,4 0 0 1 4,-4h8a4,4 0 0 1 4,4v171z" fill="#2a78d6"/>
<path d="M434.5,340v-156a4,4 0 0 1 4,-4h8a4,4 0 0 1 4,4v156z" fill="#eb6834"/>
<path d="M453.5,340v-161a4,4 0 0 1 4,-4h8a4,4 0 0 1 4,4v161z" fill="#4a3aa7"/>
<path d="M472.5,340v-156a4,4 0 0 1 4,-4h8a4,4 0 0 1 4,4v156z" fill="#eda100"/>
<path d="M491.5,340v-156a4,4 0 0 1 4,-4h8a4,4 0 0 1 4,4v156z" fill="#9e1b24"/>
<line x1="391.5" y1="180" x2="512.5" y2="180" stroke="#1f2328" stroke-width="1" stroke-opacity="0.55" stroke-dasharray="4 3"/>
<text x="404.5" y="174" font-size="10" font-weight="400" fill="#818b98" text-anchor="middle" >4.0</text>
<text x="499.5" y="174" font-size="11" font-weight="700" fill="#1f2328" text-anchor="middle" >4.0</text>
<text x="452" y="362" font-size="13" font-weight="600" fill="#1f2328" text-anchor="middle" >Practical use</text>
<text x="452" y="379" font-size="11" font-weight="400" fill="#59636e" text-anchor="middle" >wise-men level with plain</text>
<path d="M551.7,340v-111a4,4 0 0 1 4,-4h8a4,4 0 0 1 4,4v111z" fill="#8c959f"/>
<path d="M570.7,340v-126a4,4 0 0 1 4,-4h8a4,4 0 0 1 4,4v126z" fill="#2a78d6"/>
<path d="M589.7,340v-126a4,4 0 0 1 4,-4h8a4,4 0 0 1 4,4v126z" fill="#eb6834"/>
<path d="M608.7,340v-166a4,4 0 0 1 4,-4h8a4,4 0 0 1 4,4v166z" fill="#4a3aa7"/>
<path d="M627.7,340v-171a4,4 0 0 1 4,-4h8a4,4 0 0 1 4,4v171z" fill="#eda100"/>
<path d="M646.7,340v-196a4,4 0 0 1 4,-4h8a4,4 0 0 1 4,4v196z" fill="#9e1b24"/>
<line x1="546.7" y1="225" x2="667.7" y2="225" stroke="#1f2328" stroke-width="1" stroke-opacity="0.55" stroke-dasharray="4 3"/>
<text x="559.7" y="219" font-size="10" font-weight="400" fill="#818b98" text-anchor="middle" >2.9</text>
<text x="654.7" y="134" font-size="11" font-weight="700" fill="#1f2328" text-anchor="middle" >5.0</text>
<text x="607.2" y="362" font-size="13" font-weight="600" fill="#1f2328" text-anchor="middle" >Risk awareness</text>
<text x="607.2" y="379" font-size="11" font-weight="400" fill="#59636e" text-anchor="middle" >wise-men +2.1 over plain</text>
<path d="M706.9,340v-61a4,4 0 0 1 4,-4h8a4,4 0 0 1 4,4v61z" fill="#8c959f"/>
<path d="M725.9,340v-71a4,4 0 0 1 4,-4h8a4,4 0 0 1 4,4v71z" fill="#2a78d6"/>
<path d="M744.9,340v-71a4,4 0 0 1 4,-4h8a4,4 0 0 1 4,4v71z" fill="#eb6834"/>
<path d="M763.9,340v-171a4,4 0 0 1 4,-4h8a4,4 0 0 1 4,4v171z" fill="#4a3aa7"/>
<path d="M782.9,340v-156a4,4 0 0 1 4,-4h8a4,4 0 0 1 4,4v156z" fill="#eda100"/>
<path d="M801.9,340v-196a4,4 0 0 1 4,-4h8a4,4 0 0 1 4,4v196z" fill="#9e1b24"/>
<line x1="701.9" y1="275" x2="822.9" y2="275" stroke="#1f2328" stroke-width="1" stroke-opacity="0.55" stroke-dasharray="4 3"/>
<text x="714.9" y="269" font-size="10" font-weight="400" fill="#818b98" text-anchor="middle" >1.6</text>
<text x="809.9" y="134" font-size="11" font-weight="700" fill="#1f2328" text-anchor="middle" >5.0</text>
<text x="762.4" y="362" font-size="13" font-weight="600" fill="#1f2328" text-anchor="middle" >Dissent quality</text>
<text x="762.4" y="379" font-size="11" font-weight="400" fill="#59636e" text-anchor="middle" >wise-men +3.4 over plain</text>
<text x="40" y="412" font-size="11" font-weight="400" fill="#818b98" text-anchor="start" >wise-men scored 5 on risk awareness and dissent quality on all 8 questions; no other arm did that on any axis.</text>
<text x="40" y="428" font-size="11" font-weight="400" fill="#818b98" text-anchor="start" >It did not lead everywhere: correctness was a tie (plain answer, brainstorming, wise-men), and brainstorming was rated most practical (4.4 vs wise-men 4.0).</text>
</svg>
